<svg width="50" height="50" xmlns="http://www.w3.org/2000/svg">
 <g>
  <style transform="matrix(0.02821813158597508,0,0,0.02821813158597508,0,0) " type="text/css">.st0{fill:#597230;}</style>
  <g stroke="null" id="svg_17">
   <g stroke="null" transform="matrix(0.306348431771711,0,0,0.30361946813461516,-292.4653320675279,-243.9932349665022) " id="svg_5">
    <polygon stroke="null" stroke-width="0" id="svg_6" points="1042.833984375,882.4059600830078 1116.433837890625,882.4059600830078 1106.232666015625,864.7043609619141 1053.0333251953125,864.7043609619141 " class="st0"/>
    <polygon stroke="null" stroke-width="0" id="svg_7" points="1071.4334716796875,889.5054473876953 1081.6329345703125,907.2049102783203 1106.232666015625,907.2049102783203 1116.433837890625,889.5054473876953 " class="st0"/>
    <polygon stroke="null" stroke-width="0" id="svg_8" points="1030.533203125,889.5054473876953 956.83154296875,889.5054473876953 967.1328125,907.2049102783203 1020.3340454101562,907.2049102783203 " class="st0"/>
    <polygon stroke="null" stroke-width="0" id="svg_9" points="991.6328125,864.7043609619141 967.1328125,864.7043609619141 956.83154296875,882.4059600830078 1001.833984375,882.4059600830078 " class="st0"/>
    <polygon stroke="null" stroke-width="0" id="svg_10" points="1077.533203125,857.6047515869141 1089.834228515625,836.3039703369141 1079.6329345703125,818.6046905517578 1057.1328125,857.6047515869141 " class="st0"/>
    <polygon stroke="null" stroke-width="0" id="svg_11" points="1036.6328125,893.0055694580078 999.833984375,956.8051300048828 1020.3340454101562,956.8051300048828 1046.93359375,910.7047882080078 " class="st0"/>
    <polygon stroke="null" stroke-width="0" id="svg_12" points="995.7322998046875,914.3043975830078 983.43359375,935.5054473876953 993.7322998046875,953.3043975830078 1016.232177734375,914.3043975830078 " class="st0"/>
    <polygon stroke="null" stroke-width="0" id="svg_13" points="1030.533203125,882.4059600830078 993.7322998046875,818.6046905517578 983.43359375,836.3039703369141 1010.033203125,882.4059600830078 " class="st0"/>
    <polygon stroke="null" stroke-width="0" id="svg_14" points="1040.7322998046875,935.5054473876953 1053.0333251953125,956.8051300048828 1073.533203125,956.8051300048828 1050.93359375,917.8051300048828 " class="st0"/>
    <polygon stroke="null" stroke-width="0" id="svg_15" points="1042.833984375,889.5054473876953 1079.6329345703125,953.3043975830078 1089.834228515625,935.5054473876953 1063.2322998046875,889.5054473876953 " class="st0"/>
    <polygon stroke="null" stroke-width="0" id="svg_16" points="1073.533203125,815.1051177978516 1053.0333251953125,815.1051177978516 1036.6328125,843.4056549072266 1020.3340454101562,815.1051177978516 999.833984375,815.1051177978516 1036.6328125,878.8052520751953 " class="st0"/>
   </g>
  </g>
 </g>
</svg>